name analog
datacolumns 19
datarows 50
range 0.483 0.5075000000000001
endheader
time	ground_force_vx	ground_force_vy	ground_force_vz	ground_force_px	ground_force_py	ground_force_pz	l_ground_force_vx	l_ground_force_vy	l_ground_force_vz	l_ground_force_px	l_ground_force_py	l_ground_force_pz	ground_torque_x	ground_torque_y	ground_torque_z	l_ground_torque_x	l_ground_torque_y	l_ground_torque_z
0.483	-0.0	-0.0	-0.0	0.9591537714004515	34.905906677246094	-781.0355224609375	-0.0	-0.0	-0.0	-0.0	-0.0	-0.0	-0.0	-0.0	-0.0	-0.0	-0.0	-0.0
0.4835	-0.0	-0.0	-0.0	0.2341701984405517	35.6131706237793	-781.4768676757812	-0.0	-0.0	-0.0	-0.0	-0.0	-0.0	-0.0	-0.0	-0.0	-0.0	-0.0	-0.0
0.484	-0.0	-0.0	-0.0	0.4295139014720917	35.501644134521484	-781.587158203125	-0.0	-0.0	-0.0	-0.0	-0.0	-0.0	-0.0	-0.0	-0.0	-0.0	-0.0	-0.0
0.4845	-0.0	-0.0	-0.0	-0.6634438633918762	35.60196685791016	-782.2489624023438	-0.0	-0.0	-0.0	-0.0	-0.0	-0.0	-0.0	-0.0	-0.0	-0.0	-0.0	-0.0
0.485	-0.0	-0.0	-0.0	-0.9083532094955444	36.18694305419922	-782.691650390625	-0.0	-0.0	-0.0	-0.0	-0.0	-0.0	-0.0	-0.0	-0.0	-0.0	-0.0	-0.0
0.4855	-0.0	-0.0	-0.0	-2.024360179901123	36.5709228515625	-784.61181640625	-0.0	-0.0	-0.0	-0.0	-0.0	-0.0	-0.0	-0.0	-0.0	-0.0	-0.0	-0.0
0.486	-0.0	-0.0	-0.0	-2.017441987991333	37.01649856567383	-785.1820678710938	-0.0	-0.0	-0.0	-0.0	-0.0	-0.0	-0.0	-0.0	-0.0	-0.0	-0.0	-0.0
0.4865	-0.0	-0.0	-0.0	-2.292177200317383	36.96606063842773	-789.2490844726562	-0.0	-0.0	-0.0	-0.0	-0.0	-0.0	-0.0	-0.0	-0.0	-0.0	-0.0	-0.0
0.487	-0.0	-0.0	-0.0	-1.8810709714889529	37.45797348022461	-791.491943359375	-0.0	-0.0	-0.0	-0.0	-0.0	-0.0	-0.0	-0.0	-0.0	-0.0	-0.0	-0.0
0.4875	-0.0	-0.0	-0.0	-1.6057891845703125	37.99288177490234	-795.6829833984375	-0.0	-0.0	-0.0	-0.0	-0.0	-0.0	-0.0	-0.0	-0.0	-0.0	-0.0	-0.0
0.488	-0.0	-0.0	-0.0	-1.1632641553878784	38.32607269287109	-801.62548828125	-0.0	-0.0	-0.0	-0.0	-0.0	-0.0	-0.0	-0.0	-0.0	-0.0	-0.0	-0.0
0.4885	-0.0	-0.0	-0.0	-0.3214139640331268	38.03181457519531	-806.2162475585938	-0.0	-0.0	-0.0	-0.0	-0.0	-0.0	-0.0	-0.0	-0.0	-0.0	-0.0	-0.0
0.489	-0.0	-0.0	-0.0	0.062428593635559	38.008182525634766	-810.1007080078125	-0.0	-0.0	-0.0	-0.0	-0.0	-0.0	-0.0	-0.0	-0.0	-0.0	-0.0	-0.0
0.4895	-0.0	-0.0	-0.0	0.2409287691116333	38.2221908569336	-809.6053466796875	-0.0	-0.0	-0.0	-0.0	-0.0	-0.0	-0.0	-0.0	-0.0	-0.0	-0.0	-0.0
0.49	-0.0	-0.0	-0.0	0.0386013202369213	38.01069641113281	-812.0082397460938	-0.0	-0.0	-0.0	-0.0	-0.0	-0.0	-0.0	-0.0	-0.0	-0.0	-0.0	-0.0
0.4905	-0.0	-0.0	-0.0	0.5496664643287659	38.04661178588867	-812.7240600585938	-0.0	-0.0	-0.0	-0.0	-0.0	-0.0	-0.0	-0.0	-0.0	-0.0	-0.0	-0.0
0.491	-0.0	-0.0	-0.0	1.1597366333007812	37.99379348754883	-812.819580078125	-0.0	-0.0	-0.0	-0.0	-0.0	-0.0	-0.0	-0.0	-0.0	-0.0	-0.0	-0.0
0.4915	-0.0	-0.0	-0.0	1.8490118980407717	37.98363494873047	-814.7786865234375	-0.0	-0.0	-0.0	-0.0	-0.0	-0.0	-0.0	-0.0	-0.0	-0.0	-0.0	-0.0
0.492	-0.0	-0.0	-0.0	3.022514820098877	38.4536361694336	-812.7156372070312	-0.0	-0.0	-0.0	-0.0	-0.0	-0.0	-0.0	-0.0	-0.0	-0.0	-0.0	-0.0
0.4925	-0.0	-0.0	-0.0	4.194376468658447	39.11593627929688	-810.6513671875	-0.0	-0.0	-0.0	-0.0	-0.0	-0.0	-0.0	-0.0	-0.0	-0.0	-0.0	-0.0
0.493	-0.0	-0.0	-0.0	5.0986199378967285	39.43401336669922	-807.6195068359375	-0.0	-0.0	-0.0	-0.0	-0.0	-0.0	-0.0	-0.0	-0.0	-0.0	-0.0	-0.0
0.4935	-0.0	-0.0	-0.0	6.003009796142578	39.930419921875	-804.6958618164062	-0.0	-0.0	-0.0	-0.0	-0.0	-0.0	-0.0	-0.0	-0.0	-0.0	-0.0	-0.0
0.494	-0.0	-0.0	-0.0	6.319842338562012	40.376075744628906	-797.982177734375	-0.0	-0.0	-0.0	-0.0	-0.0	-0.0	-0.0	-0.0	-0.0	-0.0	-0.0	-0.0
0.4945	-0.0	-0.0	-0.0	5.696343898773193	41.07653427124024	-791.729736328125	-0.0	-0.0	-0.0	-0.0	-0.0	-0.0	-0.0	-0.0	-0.0	-0.0	-0.0	-0.0
0.495	-0.0	-0.0	-0.0	4.893631458282471	42.14574813842773	-787.6915283203125	-0.0	-0.0	-0.0	-0.0	-0.0	-0.0	-0.0	-0.0	-0.0	-0.0	-0.0	-0.0
0.4955	-0.0	-0.0	-0.0	4.039926528930664	42.66803359985352	-782.64697265625	-0.0	-0.0	-0.0	-0.0	-0.0	-0.0	-0.0	-0.0	-0.0	-0.0	-0.0	-0.0
0.496	-0.0	-0.0	-0.0	2.4595329761505127	43.39373016357422	-782.142333984375	-0.0	-0.0	-0.0	-0.0	-0.0	-0.0	-0.0	-0.0	-0.0	-0.0	-0.0	-0.0
0.4965	-0.0	-0.0	-0.0	1.402052879333496	43.62290954589844	-780.5277099609375	-0.0	-0.0	-0.0	-0.0	-0.0	-0.0	-0.0	-0.0	-0.0	-0.0	-0.0	-0.0
0.497	-0.0	-0.0	-0.0	0.9813156127929688	44.43796920776367	-780.8322143554688	-0.0	-0.0	-0.0	-0.0	-0.0	-0.0	-0.0	-0.0	-0.0	-0.0	-0.0	-0.0
0.4975	-0.0	-0.0	-0.0	0.8669750094413757	44.933860778808594	-782.9004516601562	-0.0	-0.0	-0.0	-0.0	-0.0	-0.0	-0.0	-0.0	-0.0	-0.0	-0.0	-0.0
0.498	-0.0	-0.0	-0.0	1.3131368160247805	45.3043327331543	-783.9561157226562	-0.0	-0.0	-0.0	-0.0	-0.0	-0.0	-0.0	-0.0	-0.0	-0.0	-0.0	-0.0
0.4985	-0.0	-0.0	-0.0	1.273858666419983	45.09998321533203	-785.576171875	-0.0	-0.0	-0.0	-0.0	-0.0	-0.0	-0.0	-0.0	-0.0	-0.0	-0.0	-0.0
0.499	-0.0	-0.0	-0.0	1.9874656200408936	45.55880355834961	-786.9370727539062	-0.0	-0.0	-0.0	-0.0	-0.0	-0.0	-0.0	-0.0	-0.0	-0.0	-0.0	-0.0
0.4995	-0.0	-0.0	-0.0	2.7769975662231445	45.36737823486328	-789.7103271484375	-0.0	-0.0	-0.0	-0.0	-0.0	-0.0	-0.0	-0.0	-0.0	-0.0	-0.0	-0.0
0.5	-0.0	-0.0	-0.0	3.9385886192321777	45.27824401855469	-791.9268188476562	8.441801071166992	-1.8090994358062744	-11.472515106201172	-0.0	-0.0	-0.0	-0.0	-0.0	-0.0	4080.38232421875	1115.1307373046875	2714.47509765625
0.5005000000000001	-0.0	-0.0	-0.0	4.8173675537109375	44.94624328613281	-793.7366333007812	-0.0	-0.0	-0.0	-0.0	-0.0	-0.0	-0.0	-0.0	-0.0	-0.0	-0.0	-0.0
0.501	-0.0	-0.0	-0.0	6.063843250274658	44.66777038574219	-797.7802734375	-0.0	-0.0	-0.0	-0.0	-0.0	-0.0	-0.0	-0.0	-0.0	-0.0	-0.0	-0.0
0.5015000000000001	-0.0	-0.0	-0.0	6.804318904876709	45.329566955566406	-797.1270751953125	19.220191955566406	-5.201874732971191	-24.14339637756348	-0.0	-0.0	-0.0	-0.0	-0.0	-0.0	7629.99462890625	1234.7918701171875	6234.80615234375
0.502	-0.0	-0.0	-0.0	7.709925174713135	46.12888717651367	-798.7969970703125	10.788945198059082	-4.182767868041992	-22.14507293701172	-0.0	-0.0	-0.0	-0.0	-0.0	-0.0	7115.7734375	1308.9566650390625	3753.347412109375
0.5025000000000001	-0.0	-0.0	-0.0	7.912454605102539	46.9444694519043	-798.1866455078125	6.70655632019043	-4.164267539978027	-22.10133934020996	-0.0	-0.0	-0.0	-0.0	-0.0	-0.0	6839.4580078125	1139.9599609375	2132.89892578125
0.503	-0.0	-0.0	-0.0	8.320612907409668	47.982948303222656	-797.3582763671875	6.675097942352295	-6.180970191955566	-45.97285461425781	-0.0	-0.0	-0.0	-0.0	-0.0	-0.0	13698.12890625	-373.8242492675781	2163.864013671875
0.5035000000000001	-0.0	-0.0	-0.0	8.550432205200195	48.771705627441406	-796.814208984375	21.158823013305664	-6.8755950927734375	-73.19464111328125	-0.0	-0.0	-0.0	-0.0	-0.0	-0.0	22349.861328125	-1517.2763671875	6548.38427734375
0.504	-0.0	-0.0	-0.0	8.51268482208252	49.10084915161133	-793.0532836914062	20.395814895629883	-12.474437713623049	-119.06787872314452	-0.0	-0.0	-0.0	-0.0	-0.0	-0.0	36234.91015625	-3677.190673828125	6212.09814453125
0.5045000000000001	-0.0	-0.0	-0.0	8.090336799621582	50.45188522338867	-788.4466552734375	23.511531829833984	-12.586278915405272	-158.86744689941406	-0.0	-0.0	-0.0	-0.0	-0.0	-0.0	47961.34375	-6392.30126953125	6769.19970703125
0.505	-0.0	-0.0	-0.0	7.371193408966064	51.11894226074219	-779.281005859375	21.62155532836914	-14.236797332763672	-200.26507568359372	-0.0	-0.0	-0.0	-0.0	-0.0	-0.0	61170.24609375	-9045.5400390625	6023.26416015625
0.5055000000000001	-0.0	-0.0	-0.0	6.404609203338623	52.23992919921875	-768.10888671875	24.09182929992676	-13.35380744934082	-240.92596435546875	-0.0	-0.0	-0.0	-0.0	-0.0	-0.0	73563.5234375	-11402.1533203125	6644.49951171875
0.506	-0.0	-0.0	-0.0	4.793922424316406	52.68539810180664	-751.1956176757812	30.423938751220703	-12.070452690124512	-269.4604797363281	-0.0	-0.0	-0.0	-0.0	-0.0	-0.0	82635.4765625	-13371.48828125	8358.2177734375
0.5065000000000001	-0.0	-0.0	-0.0	2.976438522338867	53.28581619262695	-731.9771118164062	37.59541320800781	-11.476222038269045	-289.3215026855469	-0.0	-0.0	-0.0	-0.0	-0.0	-0.0	88540.109375	-15253.9091796875	10704.7578125
0.507	-0.0	-0.0	-0.0	1.6432790756225586	53.47824096679688	-709.9534912109375	43.939640045166016	-12.327794075012209	-305.63800048828125	-0.0	-0.0	-0.0	-0.0	-0.0	-0.0	93393.03125	-16481.365234375	12318.326171875
0.5075000000000001	-0.0	-0.0	-0.0	0.0517570786178112	53.0931396484375	-688.2426147460938	44.18706130981445	-19.584455490112305	-314.6777038574219	-0.0	-0.0	-0.0	-0.0	-0.0	-0.0	95707.8828125	-17123.58203125	12340.0673828125
